<svg width="265" height="54" viewBox="0 0 265 54" fill="none" xmlns="http://www.w3.org/2000/svg">
<path d="M159.831 18.0366C160.343 16.7932 159.344 16.3352 158.241 16.466C157.15 16.5838 154.43 17.9712 154.246 19.1622C154.154 19.7119 154.22 20.2616 154.772 20.4972C156.217 21.1124 159.252 19.4371 159.817 18.0497M213.48 18.0366C213.979 16.7932 212.994 16.3352 211.89 16.466C210.8 16.5838 208.08 17.9712 207.896 19.1622C207.804 19.7119 207.869 20.2616 208.421 20.4972C209.867 21.1124 212.902 19.4371 213.467 18.0497M225.542 25.955C224.439 30.8239 218.171 38.402 213.769 40.771C212.245 41.5956 209.67 42.407 209.512 39.8155C209.302 36.3864 213.651 31.0987 215.95 28.6774C217.711 26.8189 221.246 23.4552 223.887 23.3112C225.687 23.2196 225.884 24.463 225.542 25.942M57.0515 24.8425C57.1434 28.2455 52.7285 34.0436 50.429 36.5173C48.9705 38.0879 45.2651 41.36 43.1365 41.5432C42.2167 41.6217 41.1524 41.3731 40.9684 40.326C40.456 37.3026 43.7935 32.8002 45.6856 30.549C47.6434 28.2193 52.1898 23.4421 55.317 23.3112C56.4996 23.2589 56.9989 23.6122 57.0383 24.8425M264.002 26.9498C263.214 27.4733 262.084 29.0177 261.361 29.7637C257.945 33.2714 253.136 37.8523 248.865 40.2082C246.802 41.3469 242.966 42.695 245.633 38.7685C247.906 35.4441 251.139 32.5385 253.661 29.3973C255.028 27.6958 257.393 24.7902 255.317 22.7615C253.596 21.0731 250.521 21.8715 248.589 22.7484C247.275 23.3505 246.106 24.2012 244.858 24.908C244.7 24.8164 244.897 24.7117 244.95 24.6462C245.252 24.2012 246.632 23.0364 245.764 22.4997C245.173 22.1333 242.834 22.6699 242.046 22.6306C241.717 22.7092 241.257 23.2196 241.021 23.4814C239.405 25.1959 237.224 29.0177 235.069 29.7637C233.65 30.248 232.033 30.5883 230.667 29.7899C229.287 28.9915 229.458 27.0676 229.248 25.7718C228.236 19.4763 222.034 21.7537 218.184 23.8086C213.979 26.0467 211.404 28.6774 208.29 32.1327C206.004 34.6719 199.631 39.6847 196.49 40.8626C195.833 41.1113 193.784 41.8835 194.165 40.4961C194.296 40.0119 195.505 38.4282 195.873 37.9177C199.499 33.0227 203.849 28.5073 207.804 23.8871C208.29 23.3112 208.08 22.683 207.318 22.5914C206.608 22.5128 205.202 22.6044 204.453 22.683C203.77 22.7484 203.389 23.1149 202.929 23.573C201.037 25.51 199.329 27.9706 197.476 29.9862C194.454 33.2845 189.829 37.067 185.9 39.2135C185.427 39.4753 184.205 40.1297 183.758 40.2867C183.613 40.3391 183.456 40.3391 183.311 40.326C183.232 40.2605 184.244 39.0695 184.349 38.9125C187.187 34.6588 184.586 31.7008 184.389 27.5387C184.27 25.2352 185.873 23.0887 188.357 23.4028C190.17 23.6384 189.447 25.942 188.909 27.0414C188.633 27.5911 187.687 28.6905 188.515 29.214C189.894 30.104 192.273 28.2193 192.851 26.9498C194.296 23.7693 191.445 21.9239 188.567 21.8715C185.663 21.8192 182.628 23.1411 181.209 25.7718C179.067 29.7245 182.26 33.8211 180.946 37.7999C180.289 39.7894 178.555 41.4778 176.4 41.6479C175.073 41.7526 173.312 41.7657 172.707 40.3391C172.366 39.5014 172.418 39.0303 172.642 38.1795C173.167 36.2424 173.325 37.4466 174.363 37.6167C177.333 38.1272 178.804 33.3368 175.401 33.0227C173.575 32.8526 172.077 33.9782 171.183 35.4833C171.039 35.7189 170.986 36.0461 170.828 36.2817C170.329 37.0147 165.336 39.8941 164.351 40.2475C164.18 40.3129 164.022 40.3391 163.838 40.3129L164.902 38.9125C165.914 37.3026 166.295 35.6666 166.177 33.7557C165.993 30.8501 163.47 26.5309 166.216 24.1881C167.202 23.3374 169.817 22.7092 170.014 24.5022C170.198 26.1252 169.449 26.688 168.897 27.9314C168.293 29.2926 169.462 29.6067 170.553 29.3187C174.337 28.324 175.125 23.0102 170.75 22.0809C167.701 21.4396 164.337 22.3689 162.367 24.8164C158.963 29.0439 163.037 33.5724 161.355 38.0617C160.619 40.025 158.963 41.517 156.822 41.661C154.049 41.8442 152.38 40.9411 153.248 37.9177C153.694 36.3341 154.036 37.512 154.956 37.6429C157.912 38.0355 159.266 33.3499 155.915 33.0358C154.404 32.8918 153.09 33.6641 152.183 34.8158C151.802 35.3001 151.566 36.0592 151.237 36.4519C150.659 37.1063 148.084 38.7554 147.216 39.3051C146.113 39.9988 143.8 41.3338 142.525 41.3207C141.08 41.3207 142.775 39.2135 143.117 38.703C143.55 38.0879 144.037 37.4727 144.496 36.8707C148.044 32.2898 152.039 28.0361 155.823 23.6646C156.414 22.238 153.957 22.6568 153.248 22.7092C152.551 22.7484 151.815 22.5914 151.237 23.1149C146.967 28.167 142.499 33.062 137.243 37.1455C135.535 38.4805 131.16 41.6741 129.018 41.4254C127.94 41.2945 128.492 40.2082 128.808 39.6061C130.411 36.622 134.497 32.9573 136.797 30.2873C138.347 28.4942 141.671 24.8295 139.083 22.6699C136.429 20.4711 131.751 22.9186 129.346 24.5546C128.335 25.2352 127.428 26.1121 126.39 26.7273C126.653 25.5362 127.415 24.8425 126.758 23.5468C125.431 20.9161 121.633 21.8322 119.492 22.7615C118.151 23.3505 116.942 24.2012 115.694 24.9473C115.668 24.4237 116.469 23.9918 116.68 23.5206C116.942 22.9055 116.68 22.3689 115.97 22.3558C115.326 22.3558 113.552 22.5128 112.935 22.6306C112.593 22.6961 112.291 22.8531 112.041 23.0756C111.108 23.9264 110.07 25.5362 109.177 26.544C106.076 29.9862 102.318 33.6117 98.7176 36.5173C96.8649 38.0094 92.1346 41.6348 89.7694 41.4254C88.1795 41.2814 89.9271 38.9648 90.3739 38.3627C92.6865 35.2085 95.7349 32.4599 98.2314 29.4365C99.5585 27.8267 101.976 24.9211 100.11 22.9317C97.3511 19.9868 91.8061 23.3112 89.2701 25.1305C88.8365 25.4446 87.5357 26.6095 87.194 26.7142C87.0758 26.7534 87.0232 26.7142 87.0626 26.5833C87.4437 25.3399 88.1532 24.6986 87.3386 23.285C85.7618 20.5758 81.176 22.1856 79.0474 23.3112C78.259 23.73 77.4049 24.463 76.6297 24.8295C76.4983 24.8949 76.3932 24.9603 76.2486 24.9342C76.7742 24.319 78.5481 22.4474 76.6691 22.3819C75.999 22.3558 74.3039 22.5128 73.6207 22.6175C73.1082 22.7092 72.8717 22.9578 72.5432 23.3243C71.9388 23.9787 71.3869 24.8164 70.7956 25.51C69.797 26.7011 67.9049 29.3449 66.5252 29.803C66.0653 29.9601 64.4886 30.3527 64.0549 30.3527C63.1483 30.3527 61.6241 29.659 61.243 28.7952C60.7831 27.7351 60.8357 25.7064 60.4021 24.463C59.7451 22.5652 58.1815 21.505 56.1711 21.6359C50.2714 22.0417 41.3101 28.8999 38.5507 34.0174C37.5784 35.8105 36.7768 38.3366 37.3024 40.3391C37.4207 40.7841 37.8806 41.5825 37.7492 41.9358C37.5915 42.3678 36.317 43.5719 35.9228 43.9384C33.2554 46.4251 29.9442 48.336 26.5935 49.7888C21.837 51.8437 15.0043 53.7415 10.3134 50.6396C3.99319 46.4644 7.40952 34.7766 9.85351 29.0962C14.5707 18.1544 25.0693 7.08174 36.3695 2.86731C39.9567 1.51921 46.0141 0.773182 49.3253 3.05054C52.8467 5.47188 52.5182 10.3145 51.4934 13.9269L49.5881 17.8272L49.6801 18.1021C49.9954 18.534 50.5736 17.5262 50.7444 17.2775C52.0189 15.3797 53.6614 11.4401 53.806 9.18895C54.1213 4.29393 49.9166 0.328181 45.1731 0.0533271C38.485 -0.339322 33.4788 1.46686 27.6841 4.46408C18.9462 8.97954 11.8245 15.1965 6.5423 23.4945C1.79885 30.9417 -4.24543 43.9645 4.2954 50.9144C7.93511 53.8724 11.6274 54.1472 16.1869 53.9509C22.9013 53.6499 30.3515 50.1291 35.5286 45.967C36.7506 44.9854 37.6441 43.7682 38.7872 42.695C39.6019 42.7211 40.456 43.1138 41.3101 43.1661C43.5438 43.3232 46.5528 42.0406 48.5106 40.9804C52.7416 38.703 56.9069 34.9598 59.2195 30.7192C59.3641 30.4443 59.5612 29.6067 59.8371 29.5412C60.1656 29.4627 60.4021 30.091 60.5861 30.2873C61.9263 31.7532 63.5425 31.7924 65.4083 31.6746C65.4872 31.7532 65.1193 32.2505 65.0536 32.3421C62.8329 35.3001 59.8634 38.101 57.7216 41.072C57.4325 41.4778 56.8412 42.3547 57.5376 42.6688C58.0107 42.8782 61.1116 42.5772 61.6767 42.3416C61.8737 42.25 62.0314 42.106 62.1891 41.962C63.2666 40.9019 64.4754 38.8732 65.5003 37.6036C69.1532 33.0882 76.7742 24.8949 82.49 23.5206C82.9762 23.4028 84.2376 23.2065 84.3559 23.9002C84.4741 24.5939 82.7002 26.7403 82.2272 27.3555C78.4692 32.1065 74.4091 36.622 70.6248 41.36C70.2963 41.7788 70.1124 42.5248 70.7825 42.6819C71.5315 42.852 74.2645 42.6557 74.8952 42.2369C75.0529 42.1191 75.2894 41.8573 75.434 41.7003C76.3143 40.7056 77.1027 39.3836 77.9436 38.3235C81.7148 33.5724 89.3884 24.9734 95.367 23.5337C96.0634 23.3636 97.443 23.2065 97.2328 24.319C97.1014 24.9865 95.4984 26.8189 94.9728 27.4079C92.9098 29.7899 86.2743 36.2817 85.9852 39.1219C85.7749 41.2945 86.629 42.9175 88.981 42.996C91.9243 43.1007 95.2224 40.8757 97.5482 39.2397C97.9818 38.9255 99.1775 37.8785 99.5322 37.7476C99.795 37.6429 99.5848 38.0094 99.5322 38.101C98.9804 38.9255 96.7072 41.216 96.5627 41.9097C96.4707 42.3416 96.5627 42.6557 97.0357 42.7342C97.7321 42.852 100.491 42.6426 101.07 42.3154C101.845 41.8835 103.619 39.1219 104.315 38.2449C108.06 33.5593 115.865 24.9996 121.738 23.5468C122.238 23.429 123.486 23.2065 123.604 23.9264C123.736 24.6593 122.225 26.4917 121.738 27.1068C117.967 31.8971 113.841 36.4257 110.044 41.2029C109.492 41.8835 109.413 42.7997 110.517 42.8128C111.187 42.8259 113.434 42.6164 113.986 42.3547C114.117 42.2892 114.249 42.1976 114.367 42.106C115.195 41.4254 116.588 39.1219 117.363 38.1533C121.042 33.507 128.794 24.9734 134.615 23.5337C135.377 23.3505 136.665 23.1672 136.481 24.319C136.284 25.5362 133.104 28.5727 132.158 29.6459C130.516 31.5045 125.47 36.8838 125.234 39.135C124.997 41.2553 125.983 42.9044 128.229 43.0091C130.818 43.14 133.748 41.3731 135.811 39.9595C137.007 39.148 138.097 38.1795 139.319 37.3942C139.516 37.3942 138.768 39.148 138.741 39.3182C138.597 40.3129 138.82 41.4254 139.543 42.1453C141.514 44.0823 145.311 42.106 147.256 40.9281C147.821 40.5878 150.436 38.6376 150.764 38.6245C150.974 38.6245 150.869 38.6507 150.909 38.7554C151.211 39.6716 151.106 40.1428 151.723 41.0589C154.548 45.2341 162.511 42.7473 166.164 40.9542C167.57 40.2605 168.884 39.3836 170.263 38.6376C170.579 38.8732 170.434 39.2789 170.526 39.6061C171.512 43.3494 175.703 43.6504 178.909 43.14C182.641 42.5379 186.11 40.9019 189.277 38.8601C189.684 38.5983 191.248 37.3419 191.55 37.2895C191.76 37.2502 191.708 37.4466 191.668 37.5774C191.497 38.2319 191.129 38.5852 191.064 39.4622C190.853 42.0929 192.365 43.1007 194.861 42.8913C197.055 42.7081 200.879 40.0904 202.679 38.7423C203.113 38.4151 205.833 36.0854 206.043 36.1246C206.188 36.1508 206.148 36.2948 206.135 36.3995C206.096 36.8707 205.78 37.4597 205.728 38.0486C205.228 44.0169 210.694 43.8467 214.82 42.1191C219.682 40.0904 224.767 35.8891 227.434 31.3605C227.763 30.8108 228.013 30.0909 228.328 29.5805C228.367 29.5151 228.315 29.4365 228.486 29.4627C228.683 29.502 229.34 30.549 229.642 30.7977C230.956 31.884 232.651 31.7924 234.241 31.5961C234.372 31.727 233.886 32.316 233.794 32.4338C231.574 35.3263 228.893 38.0748 226.738 40.9935C225.45 42.7342 226.423 42.8128 228.118 42.7211C228.735 42.695 230.102 42.5772 230.614 42.2631C231.403 41.7788 233.334 38.8078 234.07 37.8785C237.644 33.363 245.107 25.0912 250.692 23.5337C251.283 23.3636 252.755 23.1411 252.755 24.0572C252.755 24.8295 251.283 26.5048 250.744 27.133C248.721 29.5282 246.448 31.727 244.49 34.1745C242.939 36.1247 240.036 39.7239 242.335 42.0929C244.897 44.7367 250.587 41.0066 252.873 39.3182C256.092 36.9361 259.285 33.8996 262.058 31.0071C262.833 30.2087 264.121 28.9915 264.738 28.1539C265.303 27.3817 264.896 26.4001 264.068 26.9498" fill="black"/>
</svg>
